<svg xmlns="http://www.w3.org/2000/svg" xmlns:xlink="http://www.w3.org/1999/xlink" viewBox="0 0 216 34" version="1.1" width="100px" height="16px">
    <!-- Generator: Sketch 52.6 (67491) - http://www.bohemiancoding.com/sketch -->
    <title>chanel</title>
    <desc>Created with Sketch.</desc>
    <g id="Page-1" stroke="none" stroke-width="1" fill="none" fill-rule="evenodd" fill-color-id="-1" stroke-color-id="-1" recolor-fill="true" recolor-stroke="true">
        <g id="chanel" fill="#000000" fill-rule="nonzero" fill-color-id="0" stroke-color-id="-1" recolor-fill="true" recolor-stroke="true">
            <path d="M182.88,32.64 L158.4,32.64 L158.4,0.72 L181.44,0.72 L181.44,7.2 L164.88,7.2 L164.88,12.96 L179.28,12.96 L179.28,19.2 L164.88,19.2 L164.88,26.4 L182.88,26.4 L182.88,32.64 Z M192,0.72 L198.48,0.72 L198.48,26.4 L215.28,26.4 L215.28,32.64 L192,32.64 L192,0.72 Z M39.84,0.72 L46.32,0.72 L46.32,12.96 L61.44,12.96 L61.44,0.72 L67.681,0.72 L67.681,32.64 L61.44,32.64 L61.44,19.2 L46.32,19.2 L46.32,32.64 L39.84,32.64 L39.84,0.72 Z M104.4,32.64 L101.041,25.44 L84,25.44 L80.641,32.64 L73.92,32.64 L88.32,0.72 L96.72,0.72 L111.36,32.64 L104.4,32.64 Z M117.601,0.72 L125.521,0.72 L139.92,19.92 L139.92,0.72 L146.4,0.72 L146.4,32.64 L141.36,32.64 L124.081,9.6 L124.081,32.64 L117.601,32.64 L117.601,0.72 Z M25.92,21.84 L31.68,24.96 C28.758,30.136 23.184,33.719 16.8,33.6 C7.473,33.719 -0.066,26.181 2.81794987e-15,16.8 C-0.065,7.582 7.474,0.043 16.8,0 C23.167,0.043 28.728,3.607 31.68,8.88 L25.92,12 C24.209,8.624 20.749,6.407 16.8,6.48 C10.988,6.407 6.298,11.097 6.24,16.8 C6.298,22.666 10.988,27.355 16.8,27.36 C20.6320307,27.3665363 24.1486454,25.238059 25.92,21.84 Z M98.4,18.96 L92.641,6.24 L86.88,18.96 L98.4,18.96 Z" id="Combined-Shape" fill-color-id="0" stroke-color-id="-1" recolor-fill="true" recolor-stroke="true" fill="#000000"/>
        </g>
    </g>
</svg>