<svg xmlns="http://www.w3.org/2000/svg" xmlns:xlink="http://www.w3.org/1999/xlink" viewBox="0 0 188 109" version="1.1" width="100px" height="58px">
    <!-- Generator: Sketch 52.6 (67491) - http://www.bohemiancoding.com/sketch -->
    <title>hermes</title>
    <desc>Created with Sketch.</desc>
    <g id="hermes" stroke="none" stroke-width="1" fill="none" fill-rule="evenodd" fill-color-id="-1" stroke-color-id="-1" recolor-fill="true" recolor-stroke="true">
        <g fill="#F37022FF" fill-color-id="0" stroke-color-id="-1" recolor-fill="true" recolor-stroke="true">
            <path d="M0.834,54.09 L12.081,54.09 L12.081,58.18 L8.604,58.18 L8.604,65.029 L21.281,65.029 L21.281,58.18 L17.703,58.18 L17.703,54.09 L29.153,54.09 L29.153,58.18 L25.473,58.18 L25.473,78.32 L29.153,78.32 L29.153,82.307 L17.703,82.307 L17.703,78.32 L21.281,78.32 L21.281,69.016 L8.604,69.016 L8.604,78.32 L12.081,78.32 L12.081,82.307 L0.834,82.307 L0.834,78.32 L4.413,78.32 L4.413,58.18 L0.834,58.18 L0.834,54.09 Z M135.373,54.09 L158.479,54.09 L158.479,61.963 L154.594,61.963 L154.594,58.18 L143.348,58.18 L143.348,64.928 L152.957,64.928 L152.957,68.914 L143.348,68.914 L143.348,78.32 L154.492,78.32 L154.492,72.902 L158.58,72.902 L158.58,82.307 L135.373,82.307 L135.373,78.32 L139.156,78.32 L139.156,58.18 L135.373,58.18 L135.373,54.09 Z M34.367,54.09 L57.574,54.09 L57.574,61.963 L53.587,61.963 L53.587,58.18 L42.341,58.18 L42.341,64.928 L51.951,64.928 L51.951,68.914 L42.341,68.914 L42.341,78.32 L53.485,78.32 L53.485,72.902 L57.574,72.902 L57.574,82.307 L34.367,82.307 L34.367,78.32 L38.15,78.32 L38.15,58.18 L34.367,58.18 L34.367,54.09 Z M142.121,50.308 L150.402,50.308 L152.447,52.761 L144.371,52.761 L142.121,50.308 Z M181.174,66.154 C178.311,65.437 176.369,65.541 173.404,64.621 C170.847,63.701 170.338,62.166 170.338,61.144 C170.338,60.019 171.461,57.259 175.551,57.259 C179.641,57.259 182.401,60.019 182.504,62.37 L186.49,62.37 L186.49,54.09 L182.605,54.09 L182.605,55.932 L182.81,56.442 L182.81,56.546 L182.81,56.442 C182.706,56.442 182.605,56.135 182.195,55.829 L182.195,55.727 C181.072,54.704 178.72,53.477 175.244,53.477 C171.053,53.477 166.146,56.135 166.146,61.144 C166.146,66.052 169.621,67.687 172.689,68.505 C175.654,69.323 177.187,69.323 179.742,70.038 C182.195,70.651 183.832,72.184 183.832,74.434 C183.832,76.479 182.504,79.239 177.187,79.239 C171.972,79.239 169.826,76.376 169.212,72.389 L165.429,72.389 L165.429,82.305 L169.314,82.305 L169.314,80.465 L169.212,79.953 C169.212,79.953 169.314,80.26 169.825,80.566 L169.825,80.67 C171.766,82.203 174.425,83.225 177.696,83.225 C181.479,83.225 187.921,81.284 187.921,74.536 C187.922,69.631 185.365,67.381 181.174,66.154 Z M126.275,78.32 L126.275,58.18 L130.057,58.18 L130.057,54.09 L119.834,54.09 L112.984,70.652 L112.883,71.471 L112.678,70.652 L105.93,54.09 L95.605,54.09 L95.605,58.18 L99.387,58.18 L99.387,78.32 L95.605,78.32 L95.605,82.307 L107.156,82.307 L107.156,78.32 L103.578,78.32 L103.578,58.588 L103.887,59.51 L111.758,78.32 L114.008,78.32 L121.879,59.51 L122.084,58.486 L122.186,59.611 L122.186,78.32 L118.607,78.32 L118.607,82.307 L130.057,82.307 L130.057,78.32 L126.275,78.32 Z M43.875,43.254 L39.99,43.254 L39.99,42.232 L42.853,42.232 C42.955,42.436 43.568,42.947 43.875,43.254 Z M141.508,43.254 C141.508,42.845 141.916,42.436 142.428,42.232 L144.473,42.232 L144.473,43.254 L141.508,43.254 Z M77.305,43.969 C75.567,44.787 73.42,44.685 71.682,43.969 L51.338,43.969 C49.3751467,44.787 47.1668533,44.787 45.204,43.969 L39.99,43.969 L39.99,45.911 L144.473,45.911 L144.473,43.969 L77.305,43.969 Z M52.565,43.254 C52.872,43.049 53.587,42.334 53.689,42.232 L69.433,42.232 C69.637,42.539 70.149,43.05 70.455,43.254 L52.565,43.254 Z M74.545,42.64 C77.203,42.64 79.452,40.391 79.452,37.733 C79.452,34.973 77.203,32.723 74.545,32.723 C71.7802705,32.7279552 69.5404033,34.9682696 69.536,37.733 C69.536,40.391 71.785,42.64 74.545,42.64 L74.545,43.662 C71.171,43.662 68.513,41.004 68.513,37.733 C68.513,34.359 71.171,31.701 74.545,31.701 C77.816,31.701 80.474,34.359 80.474,37.733 C80.4717937,41.006582 77.818582,43.6597937 74.545,43.662 L74.545,42.64 Z M55.018,36.916 C55.018,33.235 51.951,30.168 48.271,30.168 C44.488,30.168 41.523,33.235 41.523,36.916 C41.523,40.699 44.488,43.663 48.271,43.663 C51.951,43.663 55.018,40.698 55.018,36.916 L53.893,36.916 C53.893,40.085 51.337,42.641 48.27,42.641 C46.750903,42.6433937 45.2933356,42.0409946 44.2191705,40.9668295 C43.1450054,39.8926644 42.5426063,38.435097 42.545,36.916 C42.545,33.747 45.101,31.293 48.27,31.293 C49.7626158,31.2887346 51.1953275,31.8797863 52.2507706,32.9352294 C53.3062137,33.9906725 53.8972654,35.4233842 53.893,36.916 L55.018,36.916 Z" id="Shape" fill-rule="nonzero" fill-color-id="0" stroke-color-id="-1" recolor-fill="true" recolor-stroke="true" fill="#F37022FF"/>
            <path d="M77.714,41.107 L75.67,38.755 L75.67,38.653 C75.773,38.551 75.773,38.448 75.874,38.346 L78.941,39.164 C79.043,39.164 79.248,39.266 79.248,39.368 C79.248,39.266 79.351,38.857 79.452,38.653 C79.35,38.755 79.145,38.755 78.941,38.755 L76.079,37.938 C75.976,37.938 75.976,37.835 75.976,37.835 L75.976,37.323 L78.941,36.198 C78.941,36.198 79.248,36.198 79.248,36.3 C79.248,36.198 79.043,35.687 79.043,35.585 C79.043,35.687 78.838,35.892 78.736,35.892 L78.941,35.789 L75.874,36.914 C75.874,37.016 75.874,36.914 75.772,36.914 C75.7647199,36.803938 75.677062,36.7162801 75.567,36.709 C75.567,36.606 75.465,36.504 75.567,36.504 L77.203,33.948 C77.306,33.846 77.51,33.743 77.612,33.743 C77.509,33.743 77.101,33.436 76.896,33.334 C76.999,33.334 76.999,33.641 76.896,33.743 L75.26,36.299 L75.056,36.299 C75.056,36.299 74.851,36.197 74.749,36.197 C74.749,36.197 74.646,36.197 74.646,36.094 L74.544,33.13 C74.544,32.925 74.544,32.721 74.749,32.721 L73.931,32.721 C74.034,32.721 74.136,33.028 74.136,33.13 L74.239,36.094 C74.239,36.197 74.136,36.197 74.136,36.197 C74.136,36.197 73.931,36.299 73.829,36.402 C73.829,36.402 73.727,36.402 73.727,36.299 L71.785,33.948 C71.682,33.846 71.682,33.641 71.682,33.539 C71.58,33.642 71.171,33.948 71.069,34.05 C71.171,34.05 71.376,34.153 71.478,34.255 L73.42,36.606 L73.42,36.709 C73.317,36.709 73.215,36.914 73.215,37.016 C73.215,37.016 73.113,37.118 73.01,37.118 L70.148,36.3 C69.943,36.198 69.841,36.095 69.841,35.993 C69.841,36.095 69.636,36.606 69.636,36.709 C69.636,36.709 69.943,36.606 70.045,36.709 L72.907,37.425 C73.01,37.425 73.01,37.527 73.01,37.527 L73.01,38.038 L70.148,39.265 C70.045,39.265 69.841,39.367 69.841,39.265 C69.841,39.367 69.943,39.776 70.045,39.981 C70.045,39.878 70.25,39.674 70.352,39.674 L73.113,38.447 C73.215,38.447 73.215,38.55 73.215,38.55 C73.317,38.55 73.42,38.652 73.42,38.754 C73.522,38.754 73.522,38.857 73.522,38.857 L71.784,41.413 C71.681,41.516 71.579,41.617 71.477,41.617 C71.579,41.72 71.988,42.026 72.09,42.026 C71.987,42.026 72.09,41.719 72.09,41.617 L73.828,39.164 C73.828,39.061 73.93,39.061 73.93,39.061 C74.033,39.164 74.135,39.164 74.237,39.164 C74.339,39.164 74.339,39.164 74.339,39.266 L74.544,42.333 C74.544,42.436 74.441,42.64 74.339,42.64 L75.157,42.64 C74.952,42.64 74.952,42.436 74.952,42.231 L74.748,39.266 C74.748,39.164 74.85,39.164 74.85,39.164 C74.952,39.164 75.157,39.061 75.259,38.959 C75.259,38.959 75.362,38.959 75.362,39.061 L77.406,41.311 C77.406,41.413 77.508,41.617 77.508,41.72 L78.019,41.209 C77.918,41.312 77.714,41.107 77.714,41.107 Z M48.066,33.03 C50.928,33.03 53.791,33.337 55.427,33.848 C55.631,33.848 55.631,34.052 55.427,34.155 C53.689,34.564 50.826,34.87 48.168,34.87 C45.51,34.973 42.647,34.87 40.807,34.461 C40.603,34.461 40.603,34.256 40.807,34.256 C42.444,33.644 45.204,33.133 48.066,33.03 L48.066,32.519 C44.999,32.622 41.932,33.337 39.376,34.257 C39.069,34.359 39.069,34.564 39.376,34.564 C42.239,35.28 45.204,35.382 48.168,35.28 C51.031,35.177 54.098,34.973 56.858,34.155 C57.267,34.052 57.165,33.848 56.96,33.848 C54.0769796,32.9692156 51.0799773,32.5210468 48.066,32.518 L48.066,33.03 Z" id="Shape" fill-rule="nonzero" fill-color-id="0" stroke-color-id="-1" recolor-fill="true" recolor-stroke="true" fill="#F37022FF"/>
            <path d="M78.43,31.19 C77.714,31.395 76.487,31.803 75.874,31.803 C75.363,31.803 72.808,31.701 71.069,31.803 C68.717,31.905 68.513,32.212 68.411,32.008 C67.9,31.19 67.491,29.963 66.673,29.247 C61.868,30.065 57.165,29.35 52.872,27.816 L52.872,27.202 C53.179,27.305 53.383,27.305 53.587,27.305 C52.872,26.283 51.645,25.975 50.929,24.851 C50.52,24.544 50.418,23.931 50.009,23.624 C50.111,24.749 49.191,25.567 49.089,26.486 C49.702,26.691 50.52,26.691 50.827,26.589 C51.236,26.486 51.747,26.589 51.952,26.896 C52.259,26.998 52.463,27.203 52.872,27.203 L52.872,27.817 C52.36,27.714 52.259,27.612 51.85,27.408 C51.339,27.613 50.93,27.51 50.725,27.306 C50.622,27.203 49.6,27.203 49.191,27.203 C47.862,27.203 46.431,27.714 45.715,28.839 C45.408,29.452 45.51,30.168 45.817,30.679 C46.022,30.986 46.942,32.315 47.555,32.723 L46.737,32.928 C45.51,31.803 44.59,30.781 44.795,29.452 C45.409,26.59 48.066,26.998 48.782,25.772 C49.293,24.647 49.497,21.376 48.884,20.456 C47.146,19.74 45,18.82 44.59,16.775 C44.488,16.264 44.693,15.65 45.204,15.548 C46.123,15.344 46.737,15.855 47.453,16.162 C47.76,15.957 47.146,15.242 47.862,15.242 C48.782,15.242 49.395,17.082 49.702,17.185 L49.6,17.9 C48.987,17.696 46.737,16.469 46.533,16.367 C46.124,16.162 45.613,15.855 45.306,16.264 C44.897,16.775 45.409,17.389 45.715,17.9 C50.52,22.909 58.494,17.593 63.708,21.171 C63.81,20.864 63.708,20.762 63.503,20.66 C59.925,17.287 54.2,19.025 49.6,17.9 L49.702,17.185 C55.427,18.616 62.993,16.265 65.957,22.808 C67.899,25.569 69.944,29.964 74.135,30.067 C77.509,30.169 79.758,28.84 81.394,26.386 C83.643,22.297 84.972,17.594 88.959,14.834 C89.368,14.629 89.572,14.834 89.368,14.936 C87.426,16.878 85.687,19.435 84.767,21.582 C86.3,27.409 89.674,26.182 90.492,26.08 C90.287,23.933 90.492,17.595 95.093,16.061 C97.8139902,13.9653002 101.46606,13.5331821 104.601,14.936 C101.023,18.31 98.876,23.115 98.16,26.488 L94.173,27.613 C94.48,26.999 94.48,25.977 94.378,24.853 C93.969,25.057 93.56,25.364 92.64,25.875 C92.231,25.977 92.537,25.364 92.537,25.364 C92.537,25.16 93.559,24.751 94.377,24.24 C94.07,21.888 93.866,18.821 95.808,16.879 C91.822,18.208 92.946,26.591 93.355,27.614 C92.23,28.125 90.697,28.125 90.697,28.125 L90.492,26.693 C88.754,27.307 85.789,26.898 84.46,22.297 C83.03,25.261 81.803,29.963 78.43,31.19 Z M140.793,18.718 C140.588,18.513 140.484,18.411 140.281,18.411 C140.177,18.309 140.281,18.206 140.383,18.206 C140.485,18.104 140.69,18.206 140.793,18.411 C140.895,18.513 140.895,18.718 140.793,18.718 Z" id="Shape" fill-rule="nonzero" fill-color-id="0" stroke-color-id="-1" recolor-fill="true" recolor-stroke="true" fill="#F37022FF"/>
            <path d="M49.293,38.449 L51.439,40.903 C51.644,41.108 51.644,41.414 51.542,41.517 C51.849,41.414 52.258,40.903 52.462,40.699 C52.359,40.801 51.951,40.801 51.849,40.596 L49.6,38.142 L49.6,37.938 L49.702,37.835 C49.702,37.733 49.804,37.733 49.804,37.733 L52.973,38.858 C53.28,39.062 53.382,39.267 53.382,39.369 C53.485,39.165 53.689,38.552 53.791,38.347 C53.688,38.45 53.382,38.552 53.178,38.45 L50.009,37.325 C49.907,37.325 49.907,37.325 49.907,37.223 L49.907,37.018 C49.907,36.916 50.009,36.916 50.009,36.916 L53.28,36.405 C53.689,36.302 53.893,36.507 53.893,36.609 C53.893,36.405 53.791,35.689 53.791,35.484 C53.791,35.587 53.586,35.893 53.178,35.995 L50.009,36.506 C49.907,36.506 49.907,36.404 49.907,36.404 C49.804,36.301 49.804,36.199 49.702,36.097 L49.702,35.995 L52.258,33.849 C52.565,33.644 52.871,33.644 52.973,33.746 C52.769,33.541 52.36,33.03 52.156,32.826 C52.259,32.928 52.156,33.235 51.951,33.541 L49.497,35.586 C49.394,35.688 49.394,35.688 49.394,35.586 C49.292,35.586 49.19,35.586 49.088,35.483 C49.088,35.483 48.986,35.381 49.088,35.381 L50.213,32.212 C50.2908226,31.9889656 50.4893353,31.8300777 50.724,31.803 C50.519,31.701 49.804,31.394 49.599,31.394 C49.701,31.394 49.906,31.803 49.803,32.109 L48.678,35.176 C48.678,35.279 48.576,35.279 48.576,35.279 L48.269,35.279 L48.166,35.176 L47.553,31.905 C47.553,31.496 47.758,31.292 47.758,31.292 C47.553,31.292 46.94,31.395 46.633,31.497 C46.735,31.497 47.042,31.702 47.144,32.008 L47.758,35.177 C47.758,35.28 47.758,35.28 47.655,35.382 C47.553,35.382 47.451,35.484 47.348,35.484 L47.246,35.484 L45,33.03 C44.795,32.723 44.795,32.417 44.898,32.417 C44.693,32.519 44.182,32.928 44.08,33.133 C44.183,33.133 44.489,33.133 44.694,33.337 L46.943,35.791 L46.943,35.894 L46.738,36.098 L46.636,36.098 L43.569,34.974 C43.262,34.871 43.058,34.565 43.16,34.463 C42.955,34.77 42.853,35.383 42.751,35.588 C42.853,35.485 43.16,35.383 43.466,35.485 L46.533,36.507 L46.533,37.018 L43.262,37.631 C42.955,37.631 42.649,37.427 42.649,37.324 C42.649,37.631 42.752,38.346 42.854,38.551 C42.854,38.448 42.956,38.142 43.365,38.04 L46.534,37.427 C46.534,37.427 46.637,37.427 46.637,37.529 C46.637,37.631 46.637,37.631 46.739,37.734 L46.739,37.836 L44.183,39.88 C43.876,40.187 43.569,40.085 43.569,39.983 C43.569,40.29 44.08,40.801 44.183,40.903 C44.183,40.801 44.183,40.494 44.388,40.29 L47.046,38.246 C47.046,38.143 47.046,38.143 47.148,38.246 L47.353,38.45 C47.456,38.45 47.456,38.45 47.456,38.553 L46.331,41.619 C46.228,41.926 45.922,42.131 45.82,42.028 C46.025,42.131 46.638,42.437 46.945,42.437 C46.74,42.437 46.638,42.13 46.74,41.824 L47.865,38.655 C47.865,38.655 47.865,38.553 47.968,38.553 C48.07,38.655 48.172,38.655 48.275,38.655 C48.275,38.655 48.377,38.655 48.377,38.757 L48.991,41.926 C48.991,42.335 48.786,42.539 48.684,42.641 C48.991,42.641 49.604,42.437 49.809,42.334 C49.707,42.437 49.4,42.13 49.4,41.925 L48.787,38.654 L48.787,38.552 C48.889,38.552 48.992,38.449 49.094,38.449 C49.191,38.346 49.191,38.346 49.293,38.449 Z M139.361,19.126 C139.257,19.024 139.361,18.922 139.361,18.819 C139.463,18.512 139.564,18.512 139.564,18.206 C139.054,17.797 138.951,16.979 139.257,16.775 C139.564,16.468 140.587,16.877 140.587,16.877 C141.507,16.162 141.814,15.65 142.325,15.344 C143.04,15.344 144.471,16.673 144.471,17.491 C144.266,17.798 143.754,18.309 142.938,19.331 C143.245,20.046 143.245,20.558 142.733,20.967 C142.631,20.967 142.426,20.967 142.221,20.762 C142.325,21.784 143.448,22.397 143.858,23.216 C143.858,24.852 145.596,26.896 143.653,28.225 C143.245,28.43 142.835,28.736 142.632,29.145 C142.939,30.781 143.552,32.519 143.859,34.257 L141.916,34.359 C141.713,34.973 141.1,36.097 141.303,36.711 C141.303,36.711 141.201,36.608 141.407,36.711 C141.714,37.12 141.815,40.494 141.714,40.8 C141.714,41.209 142.021,41.209 141.816,41.925 C141.611,42.027 140.795,42.538 140.691,42.845 C140.179,43.356 138.75,43.459 138.75,43.254 C138.75,42.743 139.771,42.129 139.977,41.516 C140.18,39.062 139.977,36.608 138.647,34.666 C138.137,34.359 137.727,35.177 137.42,35.586 C137.932,37.119 138.852,38.755 138.75,40.493 C138.75,41.004 139.363,41.72 139.057,42.435 L137.42,43.253 L131.49,43.253 C131.287,42.946 130.877,42.639 130.98,42.231 L136.294,42.231 C136.294,42.026 136.806,42.129 137.317,41.311 C137.317,38.857 134.76,35.279 135.171,34.052 C135.681,32.518 136.398,31.292 137.214,29.247 L137.624,29.145 C136.704,32.212 135.374,33.746 135.579,34.666 C135.681,35.177 135.886,35.586 136.192,36.199 L136.397,36.812 C136.499,37.119 136.805,37.834 137.01,38.039 C137.317,38.039 137.522,37.834 137.725,37.732 C137.725,37.323 137.418,36.812 137.213,36.505 L136.397,36.812 L136.192,36.199 C136.805,36.199 137.213,35.79 136.704,35.483 C138.136,34.768 136.397,34.972 136.907,34.666 C137.725,34.257 138.136,32.723 138.237,31.803 C138.237,31.598 138.339,31.496 138.544,31.496 C139.157,33.132 139.157,35.279 140.179,36.812 L140.179,37.323 C140.077,37.732 140.179,38.243 140.384,38.55 C141.304,38.652 141.202,38.447 140.997,37.323 C140.794,37.323 140.384,37.221 140.179,37.323 L140.179,36.812 C140.283,36.71 140.691,36.812 140.794,36.71 C140.485,36.199 140.485,35.79 140.485,35.279 C140.485,34.972 140.69,34.359 140.895,35.688 C141.202,35.79 141.713,33.336 141.815,32.519 C139.872,32.928 141.815,30.679 140.383,30.577 L141.1,29.35 C141.1,28.941 140.793,28.634 140.282,28.839 L139.872,28.327 C139.565,28.225 139.259,27.714 138.851,27.407 C138.544,27.714 138.033,28.327 137.931,28.736 C137.829,28.839 138.136,28.94 138.238,28.839 C138.545,28.532 138.75,29.145 139.259,29.043 C139.464,28.839 140.077,28.736 139.872,28.327 L140.282,28.839 C139.872,29.043 139.872,29.758 139.872,30.27 C139.157,31.599 139.464,29.555 138.645,29.555 C138.135,29.862 137.93,29.044 137.624,29.146 L137.214,29.248 C137.214,28.533 137.318,27.715 137.214,26.897 C137.829,23.421 138.544,23.523 138.646,22.501 C138.646,22.092 140.179,21.274 140.078,20.865 C140.18,20.865 140.385,21.172 140.385,21.274 C140.283,21.785 139.26,21.785 139.364,22.909 C139.977,21.784 141.716,21.887 141.817,20.558 C141.51,19.74 142.225,20.251 142.225,19.433 C142.022,19.228 141.409,18.615 141.305,18.308 C141.203,18.205 141.612,17.592 140.18,17.592 C140.078,17.695 139.977,18.308 139.772,18.614 C139.67,18.717 139.465,18.921 139.567,19.023 C139.567,19.125 139.772,19.227 139.772,19.636 C139.67,20.045 139.772,20.25 139.977,20.454 C140.795,20.863 141.409,20.454 140.487,20.966 C140.487,21.068 140.487,21.17 140.385,21.273 C140.385,21.17 140.078,20.762 139.977,20.659 C139.873,20.659 139.364,20.352 139.465,19.944 C139.564,19.536 139.564,19.332 139.361,19.126 Z M111.859,15.242 C111.963,15.958 111.552,16.469 111.552,17.185 C112.269,18.923 111.552,20.252 111.757,21.888 C110.939,21.377 110.736,20.048 110.429,18.617 C110.224,17.39 110.531,16.981 110.632,15.652 L111.859,15.242 Z M109.713,15.753 C109.611,17.899 109.305,18.922 110.838,22.296 C106.953,23.931 103.783,25.056 99.184,26.385 C99.694,23.114 102.864,16.877 105.522,15.139 C107.771,15.753 109.713,15.753 109.713,15.753 Z" id="Shape" fill-rule="nonzero" fill-color-id="0" stroke-color-id="-1" recolor-fill="true" recolor-stroke="true" fill="#F37022FF"/>
            <path d="M99.693,39.778 C98.672,40.085 98.672,40.698 99.285,41.312 C99.693,41.618 100.103,42.13 100.103,42.232 L93.56,42.232 C93.56,42.539 93.867,42.743 94.071,43.254 L130.261,43.254 C130.466,42.743 129.853,42.129 129.648,41.516 C127.091,40.596 127.091,38.245 126.99,35.586 C126.99,35.483 126.785,35.177 126.785,34.666 C126.478,34.257 124.742,30.065 125.558,26.691 L126.171,25.567 C126.683,24.851 126.069,24.442 126.478,23.624 L134.044,22.193 C134.146,22.09 134.146,21.784 133.942,21.682 C133.942,21.58 134.044,21.682 133.942,21.682 L126.581,23.011 C126.989,21.171 125.354,20.557 126.069,19.024 C127.09,20.148 129.852,22.09 131.284,22.397 L132,22.296 C130.16,21.478 126.889,19.535 125.049,16.98 C124.844,16.98 124.639,16.775 124.436,16.673 C124.436,16.877 124.946,17.491 124.844,17.593 C124.844,17.593 123.617,18.411 121.367,17.388 C120.652,18.819 112.678,22.397 112.678,22.397 C112.985,24.647 114.008,26.078 115.131,27.305 C115.235,27.509 114.824,27.1 115.131,27.305 C116.768,28.634 118.709,29.247 120.858,29.656 C121.266,30.883 122.799,34.87 122.901,35.483 C123.106,36.096 123.413,36.096 123.413,36.096 C123.618,36.301 124.333,37.63 124.333,38.141 L124.538,40.288 C124.64,40.799 125.253,40.39 125.356,40.901 L125.049,42.23 L126.582,42.23 C125.764,41.515 126.275,40.288 125.252,39.776 C125.15,38.549 125.049,37.629 124.537,37.118 C124.129,35.891 122.799,32.62 121.98,29.655 L122.492,28.939 C120.242,29.553 118.506,28.735 116.461,27.61 C114.928,26.894 115.848,27.507 116.357,27.201 C118.812,28.326 120.039,28.019 121.878,27.815 C122.083,28.122 122.491,28.428 122.491,28.939 L121.979,29.655 C122.491,29.144 122.899,29.45 123.206,30.882 C123.616,32.109 124.024,33.028 124.331,34.051 C124.741,35.073 125.048,36.403 125.354,37.118 C125.354,37.118 125.661,37.118 125.864,37.527 C126.581,39.776 126.784,40.083 126.682,41.105 C126.887,41.923 128.012,41.208 127.909,42.23 L101.022,42.23 C101.43,40.594 100.51,39.163 101.022,37.629 C99.999,35.993 97.444,34.767 97.852,32.517 C99.079,30.779 103.067,29.041 102.147,26.996 C105.827,25.156 107.667,28.223 111.042,27.916 C112.269,27.916 113.597,27.711 114.722,27.405 C113.29,26.28 112.064,24.543 111.349,23.009 C104.193,25.973 97.24,28.325 89.572,29.859 L88.959,29.654 C88.244,29.756 76.589,32.414 76.998,32.925 C72.602,33.232 67.49,35.072 66.366,35.685 C65.855,35.992 65.752,36.196 66.366,36.401 C71.069,37.628 74.953,36.708 82.212,33.947 L81.701,33.538 C81.292,33.845 75.363,35.89 73.011,36.196 C70.557,36.503 68.41,36.401 67.388,36.093 C67.081,35.991 67.081,35.991 67.285,35.889 C71.886,34.049 80.78,32.413 82.007,33.947 C82.722,34.152 83.234,34.56 83.643,35.072 C84.052,35.584 84.87,35.379 85.483,35.277 C86.3,35.072 86.403,34.357 86.403,33.641 L85.483,33.538 C85.074,33.538 83.438,33.743 83.234,33.947 C82.621,33.436 82.007,32.925 81.189,32.72 C82.825,32.005 85.483,31.391 86.914,31.289 C85.585,32.209 86.199,33.333 85.483,33.538 L86.403,33.641 C86.403,33.232 86.403,32.925 86.608,32.721 C87.528,30.472 91.413,30.165 93.355,29.654 C93.355,29.654 92.333,30.983 91.617,31.29 C91.413,34.459 90.288,37.22 90.083,40.389 C91.003,40.389 91.003,41.411 91.208,42.025 C90.901,42.536 90.492,42.025 90.083,42.128 C88.652,41.412 90.39,40.186 89.265,39.163 C89.879,36.607 90.799,34.051 90.799,31.393 C90.39,31.393 90.288,31.802 90.083,32.108 C89.776,34.664 89.061,37.015 88.448,39.366 C88.652,39.571 89.164,39.775 89.164,40.184 C88.346,40.695 89.164,41.615 88.857,42.228 L79.554,42.228 L78.634,43.25 L92.742,43.25 L92.844,42.739 C90.8,40.49 91.515,37.218 92.537,34.765 L94.991,31.494 C97.036,30.676 98.263,28.223 100.409,27.405 C100.409,28.53 99.079,28.938 98.364,29.552 C97.546,31.29 95.194,31.494 94.888,33.437 C95.807,34.459 97.138,35.175 98.263,36.095 C99.386,36.811 99.079,38.344 99.898,39.06 C100.104,39.267 99.898,39.676 99.693,39.778 Z" id="Path" fill-color-id="0" stroke-color-id="-1" recolor-fill="true" recolor-stroke="true" fill="#F37022FF"/>
            <path d="M115.336,2.872 C114.928,3.485 114.109,3.894 114.621,5.019 C113.598,5.633 113.904,6.553 114.211,7.064 C113.699,7.575 113.393,8.598 114.109,9.211 C113.291,10.131 114.314,10.949 114.621,11.255 C114.211,12.175 114.621,12.891 114.621,12.891 C114.517,13.504 113.392,14.527 112.984,14.833 C112.371,16.367 112.576,19.536 112.677,21.683 C115.54,20.252 118.402,18.923 120.652,16.98 C118.709,15.651 117.175,12.482 115.029,12.686 C114.824,10.437 113.904,6.45 117.074,2.361 C117.482,2.156 118.095,2.054 118.402,1.849 C117.074,1.645 115.336,2.462 114.109,1.747 C114.109,1.748 114.723,2.77 115.336,2.872 Z" id="Path" fill-color-id="0" stroke-color-id="-1" recolor-fill="true" recolor-stroke="true" fill="#F37022FF"/>
            <path d="M122.186,1.849 C122.186,1.952 122.594,2.156 122.594,2.156 C122.594,2.156 123.004,2.054 123.004,1.952 C123.004,1.85 123.106,1.543 123.004,1.441 C122.9,1.441 122.594,1.339 122.391,1.339 C122.391,1.338 122.186,1.748 122.186,1.849 L121.981,2.054 L120.549,1.032 L120.754,0.827 C120.754,0.827 121.367,0.213 121.674,0.213 C121.981,0.111 123.617,0.213 124.026,0.52 C124.333,0.827 124.538,1.031 124.946,1.747 C126.071,2.564 127.911,2.564 129.036,3.484 C128.831,3.791 129.343,4.302 128.934,4.506 C128.627,4.609 127.911,4.404 127.809,4.609 L127.707,5.222 L127.297,5.119 C127.297,5.119 127.502,4.404 127.297,4.404 C127.092,4.302 126.684,4.097 126.479,4.199 C126.377,4.302 126.479,4.404 126.583,4.608 C126.583,4.812 127.093,4.915 127.401,4.812 L127.809,4.915 L128.321,5.017 C128.116,5.528 128.014,5.732 127.298,5.528 C127.093,6.039 128.218,6.448 128.321,6.653 C128.217,6.858 128.014,7.062 127.298,6.653 C127.298,6.653 124.333,9.516 122.595,10.334 C120.755,11.152 122.493,9.925 122.493,9.925 C123.311,9.618 126.889,6.551 126.889,6.245 C126.785,6.04 126.582,5.632 126.582,5.325 C126.07,5.12 125.049,5.427 124.639,5.733 C124.844,6.653 126.479,11.254 125.252,18.206 L125.049,18.002 C126.172,11.254 124.332,5.836 124.332,5.836 C123.311,6.245 122.594,5.939 122.084,6.041 C121.879,10.232 125.252,10.846 124.025,16.367 C120.447,15.754 117.892,11.357 115.847,11.766 C115.743,11.05 115.029,9.824 115.743,9.414 C115.54,8.801 115.335,7.983 116.255,7.472 C115.948,6.654 115.847,5.939 116.767,5.326 C116.562,4.814 116.663,3.69 117.788,3.485 C117.892,2.565 118.3,1.849 119.118,1.543 C118.198,1.134 117.993,0.214 117.993,0.214 C118.811,0.726 119.526,1.032 120.753,0.828 L122.186,1.849 Z M87.426,78.32 L87.323,72.595 C87.323,70.857 86.199,69.015 84.665,67.993 C84.358,67.891 83.847,67.686 83.438,67.686 C83.847,67.686 84.358,67.686 84.87,67.481 C86.403,66.766 88.244,64.823 88.244,61.45 C88.244,58.893 87.222,56.952 85.381,55.622 C83.643,54.395 81.701,54.089 79.656,54.089 L63.913,54.089 L63.913,58.179 L67.491,58.179 L67.491,78.32 L63.913,78.32 L63.913,82.306 L75.159,82.306 L75.159,78.32 L71.58,78.32 L71.58,69.425 L79.35,69.425 C82.008,69.527 83.03,71.265 83.03,72.696 L83.337,82.305 L91.004,82.305 L91.004,78.319 L87.426,78.319 L87.426,78.32 Z M80.167,65.541 L71.58,65.541 L71.58,58.18 L79.657,58.18 C80.577,58.18 81.599,58.18 82.417,58.487 C83.439,58.999 84.36,60.124 84.36,61.86 C84.359,64.008 82.417,65.541 80.167,65.541 Z M62.481,92.326 C66.162,92.326 67.797,94.371 67.797,96.926 C67.797,99.483 66.059,101.424 62.174,101.424 L59.516,101.424 L59.516,108.479 L57.165,108.479 L57.165,92.327 L62.481,92.327 L62.481,92.326 Z M59.516,99.381 L62.379,99.381 C64.117,99.381 65.343,98.459 65.343,96.824 C65.343,95.597 64.628,94.371 62.48,94.371 L59.515,94.371 L59.515,99.381 L59.516,99.381 Z M86.097,108.479 L83.541,108.479 L81.497,103.674 L74.443,103.674 L72.501,108.479 L69.945,108.479 L77.101,92.223 L78.737,92.223 L86.097,108.479 Z M75.363,101.527 L80.577,101.527 L77.817,95.187 L75.363,101.527 Z M112.984,108.479 L110.633,108.479 L110.633,92.326 L112.984,92.326 L112.984,108.479 Z M129.854,95.801 C128.321,94.574 126.889,94.166 125.663,94.166 C124.13,94.166 122.901,94.881 122.901,96.006 C122.901,99.176 130.467,99.072 130.467,104.287 C130.467,106.74 128.422,108.58 125.559,108.58 C123.719,108.58 122.084,108.172 120.653,107.15 L120.653,104.185 C121.981,105.718 123.618,106.537 125.356,106.537 C127.297,106.537 128.217,105.412 128.217,104.492 C128.217,101.221 120.549,100.81 120.549,96.416 C120.549,93.758 122.697,92.121 125.865,92.121 C127.297,92.121 128.523,92.428 129.853,93.246 L129.853,95.801 L129.854,95.801 Z M103.068,106.537 C102.761,106.127 102.455,105.719 102.148,105.207 C100.921,103.162 99.898,101.73 98.365,100.811 C100.205,100.096 101.228,98.665 101.228,96.825 C101.228,94.065 99.08,92.327 95.605,92.327 L91.413,92.327 L91.413,108.479 L93.866,108.479 L93.866,101.424 L94.888,101.424 C96.114,101.424 97.138,101.834 99.284,105.106 L101.534,108.479 L104.294,108.479 L103.068,106.537 Z M95.4,99.381 L93.866,99.381 L93.866,94.268 L95.4,94.268 C97.752,94.268 98.671,95.188 98.671,96.723 C98.773,98.051 98.059,99.381 95.4,99.381 Z" id="Shape" fill-rule="nonzero" fill-color-id="0" stroke-color-id="-1" recolor-fill="true" recolor-stroke="true" fill="#F37022FF"/>
        </g>
    </g>
</svg>