<svg xmlns="http://www.w3.org/2000/svg" xmlns:xlink="http://www.w3.org/1999/xlink" viewBox="0 0 177 21" version="1.1" width="100px" height="12px">
    <!-- Generator: Sketch 52.6 (67491) - http://www.bohemiancoding.com/sketch -->
    <title>louis-vuitton</title>
    <desc>Created with Sketch.</desc>
    <g id="louis-vuitton" stroke="none" stroke-width="1" fill="none" fill-rule="evenodd" fill-color-id="-1" stroke-color-id="-1" recolor-fill="true" recolor-stroke="true">
        <g fill="#000000" fill-rule="nonzero" id="Shape" fill-color-id="0" stroke-color-id="-1" recolor-fill="true" recolor-stroke="true">
            <path d="M2.593,17.658 L7.75,17.658 L7.75,19.615 L0.504,19.615 L0.504,0.814 L2.593,0.814 L2.593,17.658 Z M18.719,2.446 C23.028,2.446 26.357,5.971 26.357,10.215 C26.357,14.459 22.962,17.985 18.719,17.985 C14.41,17.985 11.015,14.46 11.015,10.215 C11.015,5.971 14.41,2.446 18.719,2.446 Z M18.719,0.487 C13.365,0.487 8.926,4.861 8.926,10.215 C8.926,15.633 13.365,19.942 18.719,19.942 C24.072,19.942 28.511,15.633 28.511,10.215 C28.511,4.861 24.072,0.487 18.719,0.487 Z M33.342,11.977 C33.342,13.415 33.342,14.981 34.191,16.221 C35.04,17.33 36.607,17.985 37.978,17.985 C39.349,17.985 40.785,17.397 41.634,16.352 C42.678,15.112 42.613,13.479 42.613,11.977 L42.613,0.814 L44.702,0.814 L44.702,12.564 C44.702,14.654 44.506,16.22 43.004,17.787 C41.764,19.158 39.871,19.941 37.978,19.941 C36.215,19.941 34.387,19.289 33.147,18.048 C31.449,16.482 31.253,14.718 31.253,12.564 L31.253,0.814 L33.342,0.814 L33.342,11.977 Z M48.423,0.814 L50.512,0.814 L50.512,19.615 L48.423,19.615 L48.423,0.814 Z M62.852,4.469 C62.134,3.164 61.22,2.446 59.653,2.446 C57.955,2.446 56.519,3.621 56.519,5.384 C56.519,6.951 58.151,7.734 59.457,8.322 L60.698,8.844 C63.114,9.954 65.202,11.129 65.202,14.131 C65.202,17.397 62.591,19.942 59.327,19.942 C56.258,19.942 54.039,17.985 53.452,15.047 L55.475,14.524 C55.736,16.417 57.238,17.985 59.262,17.985 C61.286,17.985 63.114,16.483 63.114,14.329 C63.114,12.108 61.416,11.391 59.654,10.607 L58.478,10.085 C56.324,9.106 54.431,7.996 54.431,5.319 C54.431,2.381 56.912,0.488 59.654,0.488 C61.743,0.488 63.506,1.598 64.55,3.426 L62.852,4.469 Z M81.85,15.176 L87.203,0.814 L89.422,0.814 L81.85,20.727 L74.211,0.814 L76.431,0.814 L81.85,15.176 Z M93.535,11.977 C93.535,13.415 93.471,14.981 94.318,16.221 C95.168,17.33 96.734,17.985 98.105,17.985 C99.476,17.985 100.978,17.397 101.826,16.352 C102.806,15.112 102.74,13.479 102.74,11.977 L102.74,0.814 L104.83,0.814 L104.83,12.564 C104.83,14.654 104.699,16.22 103.197,17.787 C101.892,19.158 99.998,19.941 98.105,19.941 C96.343,19.941 94.58,19.289 93.273,18.048 C91.642,16.482 91.447,14.718 91.447,12.564 L91.447,0.814 L93.535,0.814 L93.535,11.977 Z M108.617,0.814 L110.705,0.814 L110.705,19.615 L108.617,19.615 L108.617,0.814 Z M119.453,19.615 L117.365,19.615 L117.365,2.772 L112.859,2.772 L112.859,0.814 L124.09,0.814 L124.09,2.772 L119.453,2.772 L119.453,19.615 Z M131.205,19.615 L129.115,19.615 L129.115,2.772 L124.547,2.772 L124.547,0.814 L135.775,0.814 L135.775,2.772 L131.205,2.772 L131.205,19.615 Z M146.744,2.446 C151.053,2.446 154.447,5.971 154.447,10.215 C154.447,14.459 151.052,17.985 146.744,17.985 C142.5,17.985 139.039,14.46 139.039,10.215 C139.039,5.971 142.434,2.446 146.744,2.446 Z M146.744,0.487 C141.39,0.487 136.951,4.861 136.951,10.215 C136.951,15.633 141.39,19.942 146.744,19.942 C152.096,19.942 156.535,15.633 156.535,10.215 C156.535,4.861 152.096,0.487 146.744,0.487 Z M159.539,0.03 L174.162,15.373 L174.162,0.814 L176.252,0.814 L176.252,20.465 L161.629,5.123 L161.629,19.615 L159.539,19.615 L159.539,0.03 Z" fill-color-id="0" stroke-color-id="-1" recolor-fill="true" recolor-stroke="true" fill="#000000"/>
        </g>
    </g>
</svg>